<?xml version="1.0" encoding="UTF-8"?>
<svg xmlns="http://www.w3.org/2000/svg" xmlns:xlink="http://www.w3.org/1999/xlink" width="px" height="200px" viewBox="0 0 270 200" version="1.1">
<defs>
<filter id="alpha" filterUnits="objectBoundingBox" x="0%" y="0%" width="100%" height="100%">
  <feColorMatrix type="matrix" in="SourceGraphic" values="0 0 0 0 1 0 0 0 0 1 0 0 0 0 1 0 0 0 1 0"/>
</filter>
<mask id="mask0">
  <g filter="url(#alpha)">
<rect x="0" y="0" width="270" height="200" style="fill:rgb(0%,0%,0%);fill-opacity:0.101961;stroke:none;"/>
  </g>
</mask>
<clipPath id="clip1">
  <rect x="0" y="0" width="270" height="200"/>
</clipPath>
<g id="surface5" clip-path="url(#clip1)">
<path style=" stroke:none;fill-rule:nonzero;fill:rgb(0%,0%,0%);fill-opacity:1;" d="M 115.097656 135.683594 C 115.097656 135.683594 150.957031 131.367188 163.507812 124.527344 C 176.054688 117.691406 269.28125 114.453125 269.28125 135.683594 C 269.28125 156.914062 162.070312 166.269531 162.070312 166.269531 L 105.777344 163.03125 Z M 115.097656 135.683594 "/>
</g>
<mask id="mask1">
  <g filter="url(#alpha)">
<rect x="0" y="0" width="270" height="200" style="fill:rgb(0%,0%,0%);fill-opacity:0.101961;stroke:none;"/>
  </g>
</mask>
<clipPath id="clip2">
  <rect x="0" y="0" width="270" height="200"/>
</clipPath>
<g id="surface8" clip-path="url(#clip2)">
<path style=" stroke:none;fill-rule:nonzero;fill:rgb(0%,0%,0%);fill-opacity:1;" d="M 125.496094 131.691406 L 117.96875 153.640625 L 0 155.078125 L 0 122.695312 C 0 122.695312 45.179688 112.257812 81.035156 134.570312 C 81.035156 134.570312 123.347656 129.53125 125.496094 131.691406 Z M 125.496094 131.691406 "/>
</g>
<mask id="mask2">
  <g filter="url(#alpha)">
<rect x="0" y="0" width="270" height="200" style="fill:rgb(0%,0%,0%);fill-opacity:0.301961;stroke:none;"/>
  </g>
</mask>
<clipPath id="clip3">
  <rect x="0" y="0" width="270" height="200"/>
</clipPath>
<g id="surface11" clip-path="url(#clip3)">
<path style=" stroke:none;fill-rule:nonzero;fill:rgb(34.117647%,72.156863%,58.039216%);fill-opacity:1;" d="M 200.058594 77.019531 C 199.117188 76.492188 197.367188 77.832031 196.152344 80.011719 C 194.9375 82.191406 194.71875 84.390625 195.660156 84.917969 C 196.601562 85.445312 198.347656 84.105469 199.5625 81.925781 C 200.777344 79.742188 201 77.546875 200.058594 77.019531 Z M 200.058594 77.019531 "/>
<path style="fill:none;stroke-width:1;stroke-linecap:butt;stroke-linejoin:miter;stroke:rgb(24.705882%,23.921569%,33.72549%);stroke-opacity:1;stroke-miterlimit:10;" d="M 819.206113 388.446404 C 819.204256 384.908495 812.578123 382.033181 804.400306 382.036862 C 796.233639 382.034312 789.610797 384.89877 789.612654 388.436679 C 789.614511 391.974589 796.240643 394.849902 804.40731 394.852453 C 812.573977 394.855004 819.207969 391.984313 819.206113 388.446404 Z M 819.206113 388.446404 " transform="matrix(0.148673,-0.266947,0.266013,0.149195,-25.633712,238.077982)"/>
</g>
<mask id="mask3">
  <g filter="url(#alpha)">
<rect x="0" y="0" width="270" height="200" style="fill:rgb(0%,0%,0%);fill-opacity:0.301961;stroke:none;"/>
  </g>
</mask>
<clipPath id="clip4">
  <rect x="0" y="0" width="270" height="200"/>
</clipPath>
<g id="surface14" clip-path="url(#clip4)">
<path style=" stroke:none;fill-rule:nonzero;fill:rgb(34.117647%,72.156863%,58.039216%);fill-opacity:1;" d="M 242.363281 87.902344 C 240.507812 86.238281 238.417969 85.539062 237.699219 86.34375 C 236.980469 87.152344 237.902344 89.15625 239.757812 90.824219 C 241.613281 92.488281 243.699219 93.1875 244.417969 92.378906 C 245.136719 91.574219 244.21875 89.570312 242.363281 87.902344 Z M 242.363281 87.902344 "/>
<path style="fill:none;stroke-width:1;stroke-linecap:butt;stroke-linejoin:miter;stroke:rgb(24.705882%,23.921569%,33.72549%);stroke-opacity:1;stroke-miterlimit:10;" d="M 953.796513 412.757463 C 953.790737 404.59157 950.929618 397.966211 947.386446 397.972057 C 943.852792 397.969385 940.987411 404.593565 940.983669 412.767977 C 940.979927 420.942389 943.850564 427.55923 947.384217 427.561902 C 950.927389 427.556055 953.792771 420.931876 953.796513 412.757463 Z M 953.796513 412.757463 " transform="matrix(0.20323,-0.227875,0.227078,0.203943,-45.403819,220.441028)"/>
</g>
<mask id="mask4">
  <g filter="url(#alpha)">
<rect x="0" y="0" width="270" height="200" style="fill:rgb(0%,0%,0%);fill-opacity:0.301961;stroke:none;"/>
  </g>
</mask>
<clipPath id="clip5">
  <rect x="0" y="0" width="270" height="200"/>
</clipPath>
<g id="surface17" clip-path="url(#clip5)">
<path style=" stroke:none;fill-rule:nonzero;fill:rgb(34.117647%,72.156863%,58.039216%);fill-opacity:1;" d="M 202.203125 65.234375 C 200.347656 63.566406 198.261719 62.871094 197.539062 63.675781 C 196.820312 64.484375 197.742188 66.488281 199.597656 68.152344 C 201.453125 69.820312 203.539062 70.515625 204.257812 69.710938 C 204.980469 68.90625 204.058594 66.898438 202.203125 65.234375 Z M 202.203125 65.234375 "/>
<path style="fill:none;stroke-width:1;stroke-linecap:butt;stroke-linejoin:miter;stroke:rgb(24.705882%,23.921569%,33.72549%);stroke-opacity:1;stroke-miterlimit:10;" d="M 822.010175 338.63018 C 822.004399 330.464286 819.14328 323.838927 815.600109 323.844774 C 812.066455 323.842102 809.201073 330.466281 809.197331 338.640693 C 809.203108 346.806587 812.064226 353.431946 815.607398 353.4261 C 819.141052 353.428772 822.006433 346.804592 822.010175 338.63018 Z M 822.010175 338.63018 " transform="matrix(0.20323,-0.227875,0.227078,0.203943,-41.948407,182.859963)"/>
</g>
</defs>
<g id="surface1">
<path style=" stroke:none;fill-rule:nonzero;fill:rgb(98.431373%,74.509804%,74.509804%);fill-opacity:1;" d="M 115.097656 135.683594 C 115.097656 135.683594 150.957031 131.367188 163.507812 124.527344 C 176.054688 117.691406 269.28125 114.453125 269.28125 135.683594 C 269.28125 156.914062 162.070312 166.269531 162.070312 166.269531 L 105.777344 163.03125 Z M 115.097656 135.683594 "/>
<use xlink:href="#surface5" mask="url(#mask0)"/>
<path style=" stroke:none;fill-rule:nonzero;fill:rgb(0%,85.490196%,89.411765%);fill-opacity:1;" d="M 125.496094 131.726562 L 117.96875 153.675781 L 0 155.113281 L 0 122.730469 C 0 122.730469 45.179688 112.292969 81.035156 134.605469 C 81.035156 134.605469 123.347656 129.566406 125.496094 131.726562 Z M 125.496094 131.726562 "/>
<use xlink:href="#surface8" mask="url(#mask1)"/>
<path style=" stroke:none;fill-rule:nonzero;fill:rgb(24.705882%,23.921569%,33.72549%);fill-opacity:1;" d="M 260.371094 122.550781 C 260.371094 123.777344 257.632812 124.6875 257.363281 125.871094 C 257.09375 127.042969 258.722656 128.828125 258.207031 129.949219 C 257.675781 131.09375 257.046875 132.191406 256.328125 133.230469 C 255.652344 134.199219 253.566406 134.058594 252.710938 134.96875 C 251.875 135.792969 250.988281 136.566406 250.054688 137.285156 C 249.148438 138.042969 247.921875 138.199219 246.890625 138.898438 C 245.90625 139.558594 246.027344 141.992188 244.941406 142.59375 C 243.90625 143.171875 242.316406 142.707031 241.191406 143.226562 C 240.113281 143.722656 239.542969 145.523438 238.390625 145.960938 C 237.277344 146.386719 235.898438 146.203125 234.722656 146.570312 C 233.585938 146.925781 232.308594 146.871094 231.117188 147.167969 C 229.957031 147.460938 229.074219 149.203125 227.867188 149.4375 C 226.695312 149.667969 225.316406 149.054688 224.101562 149.230469 C 222.917969 149.398438 221.539062 147.894531 220.316406 148.007812 C 219.125 148.117188 218 148.816406 216.773438 148.871094 C 215.574219 148.925781 214.390625 149.457031 213.167969 149.457031 C 211.945312 149.457031 210.683594 150.609375 209.484375 150.554688 C 208.261719 150.496094 207.152344 148.753906 205.960938 148.640625 C 204.738281 148.527344 203.285156 150.347656 202.097656 150.179688 C 200.882812 150.007812 199.921875 148.222656 198.746094 147.992188 C 197.542969 147.757812 195.984375 149.035156 194.824219 148.742188 C 193.632812 148.441406 192.921875 146.367188 191.785156 146.011719 C 190.609375 145.644531 189.148438 146.140625 188.035156 145.71875 C 186.882812 145.277344 185.476562 145.347656 184.394531 144.851562 C 183.273438 144.332031 182.464844 143.105469 181.425781 142.527344 C 180.34375 141.925781 179.84375 140.429688 178.863281 139.765625 C 177.828125 139.070312 176.257812 139.15625 175.351562 138.402344 C 174.394531 137.601562 172.597656 137.558594 171.789062 136.699219 C 170.933594 135.789062 170.589844 134.261719 169.914062 133.292969 C 169.203125 132.269531 170.597656 130.113281 170.101562 129.03125 C 169.585938 127.910156 167.433594 127.457031 167.167969 126.28125 C 166.890625 125.058594 166.75 123.804688 166.746094 122.550781 C 166.746094 121.324219 168.585938 120.386719 168.855469 119.203125 C 169.125 118.03125 167.769531 116.34375 168.285156 115.222656 C 168.78125 114.144531 168.714844 112.484375 169.425781 111.460938 C 170.101562 110.492188 171.785156 110.113281 172.640625 109.203125 C 173.449219 108.34375 174.898438 108.101562 175.855469 107.304688 C 176.761719 106.546875 176.644531 104.265625 177.679688 103.566406 C 178.660156 102.902344 180.027344 102.601562 181.113281 102 C 182.148438 101.421875 183.617188 101.519531 184.742188 101 C 185.820312 100.503906 187.511719 101.484375 188.664062 101.042969 C 189.777344 100.617188 190.679688 99.691406 191.859375 99.324219 C 192.996094 98.96875 193.53125 96.253906 194.726562 95.957031 C 195.882812 95.664062 197.308594 96.148438 198.515625 95.914062 C 199.691406 95.683594 201.269531 97.824219 202.484375 97.652344 C 203.671875 97.480469 204.558594 94.625 205.777344 94.511719 C 206.972656 94.398438 208.316406 95.878906 209.539062 95.820312 C 210.738281 95.765625 211.945312 96.632812 213.167969 96.632812 C 214.390625 96.632812 215.609375 95.445312 216.808594 95.5 C 218.03125 95.554688 219.109375 97.128906 220.304688 97.238281 C 221.523438 97.355469 223.019531 94.960938 224.207031 95.128906 C 225.421875 95.304688 226.359375 97.152344 227.535156 97.382812 C 228.738281 97.617188 230.25 96.46875 231.410156 96.761719 C 232.601562 97.058594 233.320312 99.023438 234.460938 99.382812 C 235.636719 99.75 236.359375 101.136719 237.472656 101.558594 C 238.628906 102 240.773438 99.941406 241.851562 100.4375 C 242.976562 100.957031 243.949219 101.855469 244.984375 102.429688 C 246.070312 103.035156 247.792969 102.730469 248.773438 103.394531 C 249.808594 104.089844 250.0625 105.960938 250.96875 106.71875 C 251.925781 107.519531 253.503906 107.757812 254.3125 108.617188 C 255.167969 109.527344 255.289062 111.15625 255.960938 112.128906 C 256.671875 113.148438 256.652344 114.566406 257.148438 115.644531 C 257.664062 116.765625 259.039062 117.613281 259.304688 118.785156 C 259.574219 119.96875 260.371094 121.324219 260.371094 122.550781 Z M 260.371094 122.550781 "/>
<path style=" stroke:none;fill-rule:nonzero;fill:rgb(98.431373%,74.509804%,74.509804%);fill-opacity:1;" d="M 131.234375 145.039062 C 131.234375 145.039062 171.753906 124.167969 197.929688 132.085938 C 224.105469 140 260.675781 126.328125 264.980469 131.003906 C 269.28125 135.683594 275.378906 186.058594 223.746094 188.9375 C 172.113281 191.816406 128.007812 180.300781 128.007812 180.300781 Z M 131.234375 145.039062 "/>
<path style=" stroke:none;fill-rule:nonzero;fill:rgb(0%,85.490196%,89.411765%);fill-opacity:1;" d="M 121.691406 142.816406 C 121.691406 142.816406 137.6875 141.800781 136.972656 147.558594 C 136.253906 153.316406 135.539062 197.933594 131.234375 199.011719 C 126.933594 200.09375 92.867188 200.09375 78.882812 200.09375 L 0 200.09375 L 0 131.109375 C 0 131.109375 55.9375 127.765625 83.90625 141.800781 C 83.90625 141.800781 117.53125 141.3125 121.691406 142.816406 Z M 121.691406 142.816406 "/>
<path style="fill:none;stroke-width:1;stroke-linecap:butt;stroke-linejoin:miter;stroke:rgb(24.705882%,23.921569%,33.72549%);stroke-opacity:1;stroke-miterlimit:10;" d="M 802.234115 236.781208 C 792.005122 237.356013 782.981047 243.666091 778.930469 253.080114 C 773.098148 267.169216 780.609664 283.710817 791.876939 293.993434 C 803.144213 304.263278 817.603241 310.139059 830.754803 317.854216 C 848.418403 328.226247 864.287442 342.609138 873.119242 361.092302 C 881.96386 379.562692 882.899595 402.439919 872.516782 420.092809 C 862.877431 436.48113 845.342014 446.278356 828.626968 455.32195 " transform="matrix(0.30474,0,0,0.30581,-47.844244,-37.492187)"/>
<path style="fill:none;stroke-width:1;stroke-linecap:butt;stroke-linejoin:miter;stroke:rgb(24.705882%,23.921569%,33.72549%);stroke-opacity:1;stroke-miterlimit:10;" d="M 849.302865 150.879841 C 839.073872 151.467419 830.049797 157.777497 825.999219 167.178747 C 820.166898 181.267848 827.665596 197.822223 838.93287 208.092067 C 850.200145 218.361911 864.671991 224.237692 877.823553 231.952848 C 895.487153 242.32488 911.356192 256.720544 920.187992 275.190934 C 929.019792 293.661325 929.968345 316.551325 919.572714 334.204216 C 909.933362 350.579763 892.410764 360.389763 875.682899 369.433356 " transform="matrix(0.30474,0,0,0.30581,-47.844244,-37.492187)"/>
<path style="fill:none;stroke-width:1;stroke-linecap:butt;stroke-linejoin:miter;stroke:rgb(24.705882%,23.921569%,33.72549%);stroke-opacity:1;stroke-miterlimit:10;" d="M 1004.045226 170.640348 C 995.610793 164.828434 984.612703 164.304723 975.639902 169.260817 C 962.411429 176.835466 958.207031 194.513903 960.83478 209.535466 C 963.449711 224.544255 971.294502 238.058552 976.973003 252.198747 C 984.587066 271.218395 988.330006 292.307341 983.997425 312.323317 C 979.677662 332.339294 966.410735 351.014059 947.401215 358.614255 C 929.750434 365.665192 909.882089 362.688981 891.128935 359.597809 " transform="matrix(0.30474,0,0,0.30581,-47.844244,-37.492187)"/>
<path style=" stroke:none;fill-rule:nonzero;fill:rgb(34.117647%,72.156863%,58.039216%);fill-opacity:1;" d="M 225.179688 64.796875 C 225.179688 62.480469 221.328125 60.601562 216.574219 60.601562 C 211.820312 60.601562 207.96875 62.480469 207.96875 64.796875 C 207.96875 67.113281 211.820312 68.992188 216.574219 68.992188 C 221.328125 68.992188 225.179688 67.113281 225.179688 64.796875 Z M 225.179688 64.796875 "/>
<path style="fill:none;stroke-width:1;stroke-linecap:butt;stroke-linejoin:miter;stroke:rgb(24.705882%,23.921569%,33.72549%);stroke-opacity:1;stroke-miterlimit:10;" d="M 735.397946 209.535469 C 735.397946 201.96082 722.746296 195.816797 707.146441 195.816797 C 691.559404 195.816797 678.907755 201.96082 678.907755 209.535469 C 678.907755 217.110117 691.559404 223.254141 707.146441 223.254141 C 722.746296 223.254141 735.397946 217.110117 735.397946 209.535469 Z M 735.397946 209.535469 " transform="matrix(0.30474,0,0,0.30581,0,0)"/>
<path style=" stroke:none;fill-rule:nonzero;fill:rgb(34.117647%,72.156863%,58.039216%);fill-opacity:1;" d="M 243.824219 61.199219 C 243.824219 58.882812 239.972656 57.003906 235.21875 57.003906 C 230.464844 57.003906 226.613281 58.882812 226.613281 61.199219 C 226.613281 63.515625 230.464844 65.394531 235.21875 65.394531 C 239.972656 65.394531 243.824219 63.515625 243.824219 61.199219 Z M 243.824219 61.199219 "/>
<path style="fill:none;stroke-width:1;stroke-linecap:butt;stroke-linejoin:miter;stroke:rgb(24.705882%,23.921569%,33.72549%);stroke-opacity:1;stroke-miterlimit:10;" d="M 796.57963 197.771133 C 796.57963 190.196484 783.92798 184.052461 768.340943 184.052461 C 752.741088 184.052461 740.102257 190.196484 740.102257 197.771133 C 740.102257 205.345781 752.741088 211.489805 768.340943 211.489805 C 783.92798 211.489805 796.57963 205.345781 796.57963 197.771133 Z M 796.57963 197.771133 " transform="matrix(0.30474,0,0,0.30581,0,0)"/>
<path style=" stroke:none;fill-rule:nonzero;fill:rgb(34.117647%,72.156863%,58.039216%);fill-opacity:1;" d="M 246.691406 77.03125 C 246.691406 74.714844 242.839844 72.835938 238.085938 72.835938 C 233.335938 72.835938 229.480469 74.714844 229.480469 77.03125 C 229.480469 79.347656 233.335938 81.226562 238.085938 81.226562 C 242.839844 81.226562 246.691406 79.347656 246.691406 77.03125 Z M 246.691406 77.03125 "/>
<path style="fill:none;stroke-width:1;stroke-linecap:butt;stroke-linejoin:miter;stroke:rgb(24.705882%,23.921569%,33.72549%);stroke-opacity:1;stroke-miterlimit:10;" d="M 805.988252 249.541875 C 805.988252 241.967227 793.349421 235.823203 777.749566 235.823203 C 762.149711 235.823203 749.51088 241.967227 749.51088 249.541875 C 749.51088 257.116523 762.149711 263.260547 777.749566 263.260547 C 793.349421 263.260547 805.988252 257.116523 805.988252 249.541875 Z M 805.988252 249.541875 " transform="matrix(0.30474,0,0,0.30581,0,0)"/>
<path style=" stroke:none;fill-rule:nonzero;fill:rgb(34.117647%,72.156863%,58.039216%);fill-opacity:1;" d="M 244.902344 37.453125 C 244.902344 35.132812 241.046875 33.257812 236.292969 33.257812 C 231.542969 33.257812 227.6875 35.132812 227.6875 37.453125 C 227.6875 39.769531 231.542969 41.644531 236.292969 41.644531 C 241.046875 41.644531 244.902344 39.769531 244.902344 37.453125 Z M 244.902344 37.453125 "/>
<path style="fill:none;stroke-width:1;stroke-linecap:butt;stroke-linejoin:miter;stroke:rgb(24.705882%,23.921569%,33.72549%);stroke-opacity:1;stroke-miterlimit:10;" d="M 800.104659 120.108633 C 800.104659 112.533984 787.465828 106.402734 771.865972 106.402734 C 756.266117 106.402734 743.627286 112.533984 743.627286 120.108633 C 743.627286 127.683281 756.266117 133.827305 771.865972 133.827305 C 787.465828 133.827305 800.104659 127.683281 800.104659 120.108633 Z M 800.104659 120.108633 " transform="matrix(0.30474,0,0,0.30581,0,0)"/>
<path style=" stroke:none;fill-rule:nonzero;fill:rgb(34.117647%,72.156863%,58.039216%);fill-opacity:1;" d="M 223.386719 34.933594 C 223.386719 32.617188 219.535156 30.738281 214.78125 30.738281 C 210.027344 30.738281 206.175781 32.617188 206.175781 34.933594 C 206.175781 37.25 210.027344 39.128906 214.78125 39.128906 C 219.535156 39.128906 223.386719 37.25 223.386719 34.933594 Z M 223.386719 34.933594 "/>
<path style="fill:none;stroke-width:1;stroke-linecap:butt;stroke-linejoin:miter;stroke:rgb(24.705882%,23.921569%,33.72549%);stroke-opacity:1;stroke-miterlimit:10;" d="M 729.514352 111.869766 C 729.514352 104.295117 716.862703 98.163867 701.275666 98.163867 C 685.67581 98.163867 673.024161 104.295117 673.024161 111.869766 C 673.024161 119.457188 685.67581 125.588437 701.275666 125.588437 C 716.862703 125.588437 729.514352 119.457188 729.514352 111.869766 Z M 729.514352 111.869766 " transform="matrix(0.30474,0,0,0.30581,0,0)"/>
<path style=" stroke:none;fill-rule:nonzero;fill:rgb(34.117647%,72.156863%,58.039216%);fill-opacity:1;" d="M 233.066406 25.9375 C 233.066406 23.621094 229.214844 21.742188 224.460938 21.742188 C 219.710938 21.742188 215.855469 23.621094 215.855469 25.9375 C 215.855469 28.253906 219.710938 30.132812 224.460938 30.132812 C 229.214844 30.132812 233.066406 28.253906 233.066406 25.9375 Z M 233.066406 25.9375 "/>
<path style="fill:none;stroke-width:1;stroke-linecap:butt;stroke-linejoin:miter;stroke:rgb(24.705882%,23.921569%,33.72549%);stroke-opacity:1;stroke-miterlimit:10;" d="M 761.278067 82.465312 C 761.278067 74.890664 748.639236 68.746641 733.039381 68.746641 C 717.439525 68.746641 704.800694 74.890664 704.800694 82.465312 C 704.800694 90.039961 717.439525 96.171211 733.039381 96.171211 C 748.639236 96.171211 761.278067 90.039961 761.278067 82.465312 Z M 761.278067 82.465312 " transform="matrix(0.30474,0,0,0.30581,0,0)"/>
<path style=" stroke:none;fill-rule:nonzero;fill:rgb(34.117647%,72.156863%,58.039216%);fill-opacity:1;" d="M 254.222656 27.734375 C 254.222656 25.417969 250.371094 23.542969 245.617188 23.542969 C 240.863281 23.542969 237.011719 25.417969 237.011719 27.734375 C 237.011719 30.050781 240.863281 31.929688 245.617188 31.929688 C 250.371094 31.929688 254.222656 30.050781 254.222656 27.734375 Z M 254.222656 27.734375 "/>
<path style="fill:none;stroke-width:1;stroke-linecap:butt;stroke-linejoin:miter;stroke:rgb(24.705882%,23.921569%,33.72549%);stroke-opacity:1;stroke-miterlimit:10;" d="M 830.70191 88.341094 C 830.70191 80.766445 818.05026 74.622422 802.463223 74.622422 C 786.863368 74.622422 774.224537 80.766445 774.224537 88.341094 C 774.224537 95.915742 786.863368 102.059766 802.463223 102.059766 C 818.05026 102.059766 830.70191 95.915742 830.70191 88.341094 Z M 830.70191 88.341094 " transform="matrix(0.30474,0,0,0.30581,0,0)"/>
<path style=" stroke:none;fill-rule:nonzero;fill:rgb(34.117647%,72.156863%,58.039216%);fill-opacity:1;" d="M 270 39.609375 C 270 37.292969 266.148438 35.414062 261.394531 35.414062 C 256.640625 35.414062 252.789062 37.292969 252.789062 39.609375 C 252.789062 41.925781 256.640625 43.804688 261.394531 43.804688 C 266.148438 43.804688 270 41.925781 270 39.609375 Z M 270 39.609375 "/>
<path style="fill:none;stroke-width:1;stroke-linecap:butt;stroke-linejoin:miter;stroke:rgb(24.705882%,23.921569%,33.72549%);stroke-opacity:1;stroke-miterlimit:10;" d="M 882.474971 127.172344 C 882.474971 119.597695 869.823322 113.453672 854.236285 113.453672 C 838.636429 113.453672 825.997598 119.597695 825.997598 127.172344 C 825.997598 134.746992 838.636429 140.891016 854.236285 140.891016 C 869.823322 140.891016 882.474971 134.746992 882.474971 127.172344 Z M 882.474971 127.172344 " transform="matrix(0.30474,0,0,0.30581,0,0)"/>
<path style=" stroke:none;fill-rule:nonzero;fill:rgb(34.117647%,72.156863%,58.039216%);fill-opacity:1;" d="M 214.421875 18.742188 C 214.421875 16.425781 210.570312 14.546875 205.816406 14.546875 C 201.0625 14.546875 197.210938 16.425781 197.210938 18.742188 C 197.210938 21.058594 201.0625 22.933594 205.816406 22.933594 C 210.570312 22.933594 214.421875 21.058594 214.421875 18.742188 Z M 214.421875 18.742188 "/>
<path style="fill:none;stroke-width:1;stroke-linecap:butt;stroke-linejoin:miter;stroke:rgb(24.705882%,23.921569%,33.72549%);stroke-opacity:1;stroke-miterlimit:10;" d="M 700.096383 58.923867 C 700.096383 51.349219 687.444734 45.217969 671.857697 45.217969 C 656.257841 45.217969 643.61901 51.349219 643.61901 58.923867 C 643.61901 66.498516 656.257841 72.642539 671.857697 72.642539 C 687.444734 72.642539 700.096383 66.498516 700.096383 58.923867 Z M 700.096383 58.923867 " transform="matrix(0.30474,0,0,0.30581,0,0)"/>
<path style=" stroke:none;fill-rule:nonzero;fill:rgb(34.117647%,72.156863%,58.039216%);fill-opacity:1;" d="M 219.800781 5.066406 C 219.800781 2.75 215.949219 0.871094 211.195312 0.871094 C 206.441406 0.871094 202.589844 2.75 202.589844 5.066406 C 202.589844 7.382812 206.441406 9.261719 211.195312 9.261719 C 215.949219 9.261719 219.800781 7.382812 219.800781 5.066406 Z M 219.800781 5.066406 "/>
<path style="fill:none;stroke-width:1;stroke-linecap:butt;stroke-linejoin:miter;stroke:rgb(24.705882%,23.921569%,33.72549%);stroke-opacity:1;stroke-miterlimit:10;" d="M 717.747164 14.216836 C 717.747164 6.642188 705.095515 0.498164 689.508478 0.498164 C 673.908623 0.498164 661.269792 6.642188 661.269792 14.216836 C 661.269792 21.791484 673.908623 27.935508 689.508478 27.935508 C 705.095515 27.935508 717.747164 21.791484 717.747164 14.216836 Z M 717.747164 14.216836 " transform="matrix(0.30474,0,0,0.30581,0,0)"/>
<path style=" stroke:none;fill-rule:nonzero;fill:rgb(34.117647%,72.156863%,58.039216%);fill-opacity:1;" d="M 269.640625 15.140625 C 269.640625 12.824219 265.789062 10.949219 261.035156 10.949219 C 256.28125 10.949219 252.429688 12.824219 252.429688 15.140625 C 252.429688 17.457031 256.28125 19.335938 261.035156 19.335938 C 265.789062 19.335938 269.640625 17.457031 269.640625 15.140625 Z M 269.640625 15.140625 "/>
<path style="fill:none;stroke-width:1;stroke-linecap:butt;stroke-linejoin:miter;stroke:rgb(24.705882%,23.921569%,33.72549%);stroke-opacity:1;stroke-miterlimit:10;" d="M 881.295689 47.159531 C 881.295689 39.584883 868.644039 33.440859 853.057002 33.440859 C 837.457147 33.440859 824.818316 39.584883 824.818316 47.159531 C 824.818316 54.73418 837.457147 60.878203 853.057002 60.878203 C 868.644039 60.878203 881.295689 54.73418 881.295689 47.159531 Z M 881.295689 47.159531 " transform="matrix(0.30474,0,0,0.30581,0,0)"/>
<path style=" stroke:none;fill-rule:nonzero;fill:rgb(34.117647%,72.156863%,58.039216%);fill-opacity:1;" d="M 190.398438 48.246094 C 190.398438 45.929688 186.546875 44.050781 181.792969 44.050781 C 177.039062 44.050781 173.1875 45.929688 173.1875 48.246094 C 173.1875 50.5625 177.039062 52.441406 181.792969 52.441406 C 186.546875 52.441406 190.398438 50.5625 190.398438 48.246094 Z M 190.398438 48.246094 "/>
<path style="fill:none;stroke-width:1;stroke-linecap:butt;stroke-linejoin:miter;stroke:rgb(24.705882%,23.921569%,33.72549%);stroke-opacity:1;stroke-miterlimit:10;" d="M 621.263918 155.414414 C 621.263918 147.839766 608.612269 141.695742 593.025231 141.695742 C 577.425376 141.695742 564.786545 147.839766 564.786545 155.414414 C 564.786545 162.989062 577.425376 169.133086 593.025231 169.133086 C 608.612269 169.133086 621.263918 162.989062 621.263918 155.414414 Z M 621.263918 155.414414 " transform="matrix(0.30474,0,0,0.30581,0,0)"/>
<path style=" stroke:none;fill-rule:nonzero;fill:rgb(34.117647%,72.156863%,58.039216%);fill-opacity:1;" d="M 220.160156 46.085938 C 220.160156 43.769531 216.304688 41.890625 211.554688 41.890625 C 206.800781 41.890625 202.949219 43.769531 202.949219 46.085938 C 202.949219 48.402344 206.800781 50.28125 211.554688 50.28125 C 216.304688 50.28125 220.160156 48.402344 220.160156 46.085938 Z M 220.160156 46.085938 "/>
<path style="fill:none;stroke-width:1;stroke-linecap:butt;stroke-linejoin:miter;stroke:rgb(24.705882%,23.921569%,33.72549%);stroke-opacity:1;stroke-miterlimit:10;" d="M 718.913628 148.350703 C 718.913628 140.776055 706.274797 134.632031 690.674942 134.632031 C 675.087905 134.632031 662.436256 140.776055 662.436256 148.350703 C 662.436256 155.925352 675.087905 162.069375 690.674942 162.069375 C 706.274797 162.069375 718.913628 155.925352 718.913628 148.350703 Z M 718.913628 148.350703 " transform="matrix(0.30474,0,0,0.30581,0,0)"/>
<path style=" stroke:none;fill-rule:nonzero;fill:rgb(34.117647%,72.156863%,58.039216%);fill-opacity:1;" d="M 259.242188 49.324219 C 259.242188 47.007812 255.390625 45.132812 250.636719 45.132812 C 245.882812 45.132812 242.03125 47.007812 242.03125 49.324219 C 242.03125 51.640625 245.882812 53.519531 250.636719 53.519531 C 255.390625 53.519531 259.242188 51.640625 259.242188 49.324219 Z M 259.242188 49.324219 "/>
<path style="fill:none;stroke-width:1;stroke-linecap:butt;stroke-linejoin:miter;stroke:rgb(24.705882%,23.921569%,33.72549%);stroke-opacity:1;stroke-miterlimit:10;" d="M 847.173409 158.939883 C 847.173409 151.365234 834.534578 145.221211 818.934722 145.221211 C 803.334867 145.221211 790.696036 151.365234 790.696036 158.939883 C 790.696036 166.514531 803.334867 172.658555 818.934722 172.658555 C 834.534578 172.658555 847.173409 166.514531 847.173409 158.939883 Z M 847.173409 158.939883 " transform="matrix(0.30474,0,0,0.30581,0,0)"/>
<path style=" stroke:none;fill-rule:nonzero;fill:rgb(34.117647%,72.156863%,58.039216%);fill-opacity:1;" d="M 238.445312 50.765625 C 238.445312 48.449219 234.59375 46.570312 229.839844 46.570312 C 225.089844 46.570312 221.234375 48.449219 221.234375 50.765625 C 221.234375 53.082031 225.089844 54.960938 229.839844 54.960938 C 234.59375 54.960938 238.445312 53.082031 238.445312 50.765625 Z M 238.445312 50.765625 "/>
<path style="fill:none;stroke-width:1;stroke-linecap:butt;stroke-linejoin:miter;stroke:rgb(24.705882%,23.921569%,33.72549%);stroke-opacity:1;stroke-miterlimit:10;" d="M 778.928848 163.653281 C 778.928848 156.078633 766.290017 149.934609 750.690162 149.934609 C 735.090307 149.934609 722.451476 156.078633 722.451476 163.653281 C 722.451476 171.22793 735.090307 177.35918 750.690162 177.35918 C 766.290017 177.35918 778.928848 171.22793 778.928848 163.653281 Z M 778.928848 163.653281 " transform="matrix(0.30474,0,0,0.30581,0,0)"/>
<path style=" stroke:none;fill-rule:nonzero;fill:rgb(34.117647%,72.156863%,58.039216%);fill-opacity:1;" d="M 239.878906 14.78125 C 239.878906 12.464844 236.027344 10.585938 231.273438 10.585938 C 226.523438 10.585938 222.667969 12.464844 222.667969 14.78125 C 222.667969 17.097656 226.523438 18.976562 231.273438 18.976562 C 236.027344 18.976562 239.878906 17.097656 239.878906 14.78125 Z M 239.878906 14.78125 "/>
<path style="fill:none;stroke-width:1;stroke-linecap:butt;stroke-linejoin:miter;stroke:rgb(24.705882%,23.921569%,33.72549%);stroke-opacity:1;stroke-miterlimit:10;" d="M 783.63316 45.984375 C 783.63316 38.409727 770.994329 32.265703 755.394473 32.265703 C 739.794618 32.265703 727.155787 38.409727 727.155787 45.984375 C 727.155787 53.559023 739.794618 59.703047 755.394473 59.703047 C 770.994329 59.703047 783.63316 53.559023 783.63316 45.984375 Z M 783.63316 45.984375 " transform="matrix(0.30474,0,0,0.30581,0,0)"/>
<path style=" stroke:none;fill-rule:nonzero;fill:rgb(34.117647%,72.156863%,58.039216%);fill-opacity:1;" d="M 202.949219 37.089844 C 202.949219 34.773438 199.09375 32.898438 194.34375 32.898438 C 189.589844 32.898438 185.738281 34.773438 185.738281 37.089844 C 185.738281 39.40625 189.589844 41.285156 194.34375 41.285156 C 199.09375 41.285156 202.949219 39.40625 202.949219 37.089844 Z M 202.949219 37.089844 "/>
<path style="fill:none;stroke-width:1;stroke-linecap:butt;stroke-linejoin:miter;stroke:rgb(24.705882%,23.921569%,33.72549%);stroke-opacity:1;stroke-miterlimit:10;" d="M 662.436256 118.933477 C 662.436256 111.358828 649.797425 105.214805 634.197569 105.214805 C 618.610532 105.214805 605.958883 111.358828 605.958883 118.933477 C 605.958883 126.508125 618.610532 132.652148 634.197569 132.652148 C 649.797425 132.652148 662.436256 126.508125 662.436256 118.933477 Z M 662.436256 118.933477 " transform="matrix(0.30474,0,0,0.30581,0,0)"/>
<path style=" stroke:none;fill-rule:nonzero;fill:rgb(34.117647%,72.156863%,58.039216%);fill-opacity:1;" d="M 207.96875 53.285156 C 207.96875 50.96875 204.117188 49.089844 199.363281 49.089844 C 194.609375 49.089844 190.757812 50.96875 190.757812 53.285156 C 190.757812 55.601562 194.609375 57.476562 199.363281 57.476562 C 204.117188 57.476562 207.96875 55.601562 207.96875 53.285156 Z M 207.96875 53.285156 "/>
<path style="fill:none;stroke-width:1;stroke-linecap:butt;stroke-linejoin:miter;stroke:rgb(24.705882%,23.921569%,33.72549%);stroke-opacity:1;stroke-miterlimit:10;" d="M 678.907755 171.879375 C 678.907755 164.304727 666.268924 158.173477 650.669068 158.173477 C 635.082031 158.173477 622.430382 164.304727 622.430382 171.879375 C 622.430382 179.454023 635.082031 185.598047 650.669068 185.598047 C 666.268924 185.598047 678.907755 179.454023 678.907755 171.879375 Z M 678.907755 171.879375 " transform="matrix(0.30474,0,0,0.30581,0,0)"/>
<use xlink:href="#surface11" mask="url(#mask2)"/>
<use xlink:href="#surface14" mask="url(#mask3)"/>
<use xlink:href="#surface17" mask="url(#mask4)"/>
</g>
</svg>
