<?xml version="1.0" encoding="UTF-8"?>
<svg xmlns="http://www.w3.org/2000/svg" xmlns:xlink="http://www.w3.org/1999/xlink" width="px" height="200px" viewBox="0 0 418 200" version="1.1">
<defs>
<filter id="alpha" filterUnits="objectBoundingBox" x="0%" y="0%" width="100%" height="100%">
  <feColorMatrix type="matrix" in="SourceGraphic" values="0 0 0 0 1 0 0 0 0 1 0 0 0 0 1 0 0 0 1 0"/>
</filter>
<mask id="mask0">
  <g filter="url(#alpha)">
<rect x="0" y="0" width="418" height="200" style="fill:rgb(0%,0%,0%);fill-opacity:0.101961;stroke:none;"/>
  </g>
</mask>
<clipPath id="clip1">
  <rect x="0" y="0" width="418" height="200"/>
</clipPath>
<g id="surface5" clip-path="url(#clip1)">
<path style=" stroke:none;fill-rule:nonzero;fill:rgb(0%,0%,0%);fill-opacity:1;" d="M 223.472656 120.859375 L 222.933594 138.210938 L 212.957031 155.566406 L 221.285156 136.226562 Z M 223.472656 120.859375 "/>
</g>
</defs>
<g id="surface1">
<path style=" stroke:none;fill-rule:nonzero;fill:rgb(24.705882%,23.921569%,33.72549%);fill-opacity:1;" d="M 326.519531 30.070312 L 224.019531 30.070312 L 224.019531 27.957031 L 177.542969 27.957031 L 177.542969 30.070312 L 74.621094 30.070312 C 70.792969 30.070312 67.6875 33.179688 67.6875 37.015625 L 67.6875 177.546875 C 67.6875 181.382812 70.792969 184.488281 74.621094 184.488281 L 326.519531 184.488281 C 330.347656 184.488281 333.453125 181.382812 333.453125 177.546875 L 333.453125 37.011719 C 333.453125 33.179688 330.347656 30.070312 326.519531 30.070312 Z M 326.519531 30.070312 "/>
<path style=" stroke:none;fill-rule:nonzero;fill:rgb(90.196078%,90.196078%,90.196078%);fill-opacity:1;" d="M 76.984375 42.339844 L 324.15625 42.339844 L 324.15625 181.949219 L 76.984375 181.949219 Z M 76.984375 42.339844 "/>
<path style=" stroke:none;fill-rule:nonzero;fill:rgb(100%,100%,100%);fill-opacity:1;" d="M 87.464844 49.722656 L 313.757812 49.722656 L 313.757812 170.398438 L 87.464844 170.398438 Z M 87.464844 49.722656 "/>
<path style=" stroke:none;fill-rule:nonzero;fill:rgb(0%,85.490196%,89.411765%);fill-opacity:1;" d="M 202.894531 35.996094 C 202.894531 37.398438 201.757812 38.53125 200.359375 38.53125 C 198.957031 38.53125 197.824219 37.398438 197.824219 35.996094 C 197.824219 34.59375 198.957031 33.457031 200.359375 33.457031 C 201.757812 33.457031 202.894531 34.59375 202.894531 35.996094 Z M 202.894531 35.996094 "/>
<path style=" stroke:none;fill-rule:nonzero;fill:rgb(24.705882%,23.921569%,33.72549%);fill-opacity:1;" d="M 340.390625 179.414062 L 316.269531 179.414062 L 316.269531 177.671875 C 316.269531 177.480469 316.113281 177.328125 315.925781 177.328125 L 307.652344 177.328125 C 307.464844 177.328125 307.308594 177.480469 307.308594 177.671875 L 307.308594 179.414062 L 302.140625 179.414062 L 302.140625 177.671875 C 302.140625 177.480469 301.984375 177.328125 301.796875 177.328125 L 293.523438 177.328125 C 293.335938 177.328125 293.179688 177.480469 293.179688 177.671875 L 293.179688 179.414062 L 288.011719 179.414062 L 288.011719 177.671875 C 288.011719 177.480469 287.855469 177.328125 287.667969 177.328125 L 279.394531 177.328125 C 279.207031 177.328125 279.050781 177.480469 279.050781 177.671875 L 279.050781 179.414062 L 273.882812 179.414062 L 273.882812 177.671875 C 273.882812 177.480469 273.726562 177.328125 273.539062 177.328125 L 265.265625 177.328125 C 265.078125 177.328125 264.921875 177.480469 264.921875 177.671875 L 264.921875 179.414062 L 259.753906 179.414062 L 259.753906 177.671875 C 259.753906 177.480469 259.597656 177.328125 259.410156 177.328125 L 251.136719 177.328125 C 250.949219 177.328125 250.792969 177.480469 250.792969 177.671875 L 250.792969 179.414062 L 245.625 179.414062 L 245.625 177.671875 C 245.625 177.480469 245.46875 177.328125 245.28125 177.328125 L 237.011719 177.328125 C 236.820312 177.328125 236.667969 177.480469 236.667969 177.671875 L 236.667969 179.414062 L 231.496094 179.414062 L 231.496094 177.671875 C 231.496094 177.480469 231.339844 177.328125 231.152344 177.328125 L 166.363281 177.328125 C 166.175781 177.328125 166.019531 177.480469 166.019531 177.671875 L 166.019531 179.414062 L 160.851562 179.414062 L 160.851562 177.671875 C 160.851562 177.480469 160.695312 177.328125 160.507812 177.328125 L 152.234375 177.328125 C 152.046875 177.328125 151.890625 177.480469 151.890625 177.671875 L 151.890625 179.414062 L 146.722656 179.414062 L 146.722656 177.671875 C 146.722656 177.480469 146.570312 177.328125 146.378906 177.328125 L 138.109375 177.328125 C 137.917969 177.328125 137.761719 177.480469 137.761719 177.671875 L 137.761719 179.414062 L 132.59375 179.414062 L 132.59375 177.671875 C 132.59375 177.480469 132.441406 177.328125 132.25 177.328125 L 123.980469 177.328125 C 123.789062 177.328125 123.632812 177.480469 123.632812 177.671875 L 123.632812 179.414062 L 118.464844 179.414062 L 118.464844 177.671875 C 118.464844 177.480469 118.3125 177.328125 118.121094 177.328125 L 109.851562 177.328125 C 109.660156 177.328125 109.503906 177.480469 109.503906 177.671875 L 109.503906 179.414062 L 104.335938 179.414062 L 104.335938 177.671875 C 104.335938 177.480469 104.183594 177.328125 103.992188 177.328125 L 95.722656 177.328125 C 95.53125 177.328125 95.375 177.480469 95.375 177.671875 L 95.375 179.414062 L 90.207031 179.414062 L 90.207031 177.671875 C 90.207031 177.480469 90.054688 177.328125 89.863281 177.328125 L 81.589844 177.328125 C 81.398438 177.328125 81.246094 177.480469 81.246094 177.671875 L 81.246094 179.414062 L 65.394531 179.414062 C 60.828125 179.414062 57.125 183.121094 57.125 187.695312 L 57.125 191.4375 C 57.125 196.011719 60.828125 199.71875 65.394531 199.71875 L 340.390625 199.71875 C 344.957031 199.71875 348.660156 196.011719 348.660156 191.4375 L 348.660156 187.695312 C 348.660156 183.121094 344.957031 179.414062 340.390625 179.414062 Z M 340.390625 179.414062 "/>
<path style=" stroke:none;fill-rule:nonzero;fill:rgb(90.196078%,90.196078%,90.196078%);fill-opacity:1;" d="M 150.578125 58.1875 L 250.644531 58.1875 L 250.644531 163.511719 L 150.578125 163.511719 Z M 150.578125 58.1875 "/>
<path style=" stroke:none;fill-rule:nonzero;fill:rgb(90.196078%,90.196078%,90.196078%);fill-opacity:1;" d="M 0 199.367188 L 418 199.367188 L 418 200.15625 L 0 200.15625 Z M 0 199.367188 "/>
<path style=" stroke:none;fill-rule:nonzero;fill:rgb(0%,85.490196%,89.411765%);fill-opacity:1;" d="M 377.40625 171.808594 C 383.066406 177.894531 383.359375 186.835938 383.359375 186.835938 C 383.359375 186.835938 374.472656 185.914062 368.808594 179.828125 C 363.144531 173.746094 362.851562 164.800781 362.851562 164.800781 C 362.851562 164.800781 371.742188 165.722656 377.40625 171.808594 Z M 377.40625 171.808594 "/>
<path style=" stroke:none;fill-rule:nonzero;fill:rgb(0%,85.490196%,89.411765%);fill-opacity:1;" d="M 395.234375 181.304688 C 389.15625 186.976562 380.222656 187.269531 380.222656 187.269531 C 380.222656 187.269531 381.144531 178.367188 387.222656 172.699219 C 393.300781 167.027344 402.234375 166.734375 402.234375 166.734375 C 402.234375 166.734375 401.3125 175.636719 395.234375 181.304688 Z M 395.234375 181.304688 "/>
<path style=" stroke:none;fill-rule:nonzero;fill:rgb(89.803922%,89.803922%,89.803922%);fill-opacity:1;" d="M 393.722656 199.367188 L 371.371094 199.367188 C 370.496094 199.367188 369.695312 198.867188 369.3125 198.078125 L 364.449219 188.0625 C 364.101562 187.351562 364.144531 186.515625 364.5625 185.847656 C 364.980469 185.175781 365.714844 184.769531 366.503906 184.773438 L 398.589844 184.773438 C 399.378906 184.769531 400.113281 185.175781 400.53125 185.847656 C 400.949219 186.515625 400.992188 187.351562 400.648438 188.0625 L 395.78125 198.078125 C 395.398438 198.867188 394.597656 199.367188 393.722656 199.367188 Z M 393.722656 199.367188 "/>
<path style=" stroke:none;fill-rule:nonzero;fill:rgb(89.803922%,89.803922%,89.803922%);fill-opacity:1;" d="M 24.015625 171.808594 C 29.679688 177.894531 29.972656 186.835938 29.972656 186.835938 C 29.972656 186.835938 21.082031 185.914062 15.417969 179.828125 C 9.753906 173.746094 9.460938 164.800781 9.460938 164.800781 C 9.460938 164.800781 18.351562 165.722656 24.015625 171.808594 Z M 24.015625 171.808594 "/>
<path style=" stroke:none;fill-rule:nonzero;fill:rgb(89.803922%,89.803922%,89.803922%);fill-opacity:1;" d="M 36.789062 199.367188 L 14.433594 199.367188 C 13.558594 199.367188 12.761719 198.867188 12.378906 198.078125 L 7.511719 188.0625 C 7.167969 187.351562 7.210938 186.515625 7.628906 185.847656 C 8.046875 185.175781 8.78125 184.769531 9.570312 184.773438 L 41.65625 184.773438 C 42.445312 184.769531 43.175781 185.175781 43.59375 185.847656 C 44.011719 186.515625 44.058594 187.351562 43.710938 188.0625 L 38.84375 198.078125 C 38.460938 198.867188 37.664062 199.367188 36.789062 199.367188 Z M 36.789062 199.367188 "/>
<path style=" stroke:none;fill-rule:nonzero;fill:rgb(62.745098%,38.039216%,41.568627%);fill-opacity:1;" d="M 225.984375 74.6875 C 225.984375 82.039062 220.03125 88.003906 212.6875 88.003906 C 205.339844 88.003906 199.386719 82.039062 199.386719 74.6875 C 199.386719 67.332031 205.339844 61.371094 212.6875 61.371094 C 220.03125 61.371094 225.984375 67.332031 225.984375 74.6875 Z M 225.984375 74.6875 "/>
<path style=" stroke:none;fill-rule:nonzero;fill:rgb(0%,85.490196%,89.411765%);fill-opacity:1;" d="M 182.085938 163.730469 L 190.675781 109.59375 C 191.597656 103.769531 194.980469 98.625 199.953125 95.472656 C 204.925781 92.316406 211.015625 91.457031 216.667969 93.109375 C 226.789062 96.042969 233.027344 106.199219 231.074219 116.566406 L 222.089844 164.914062 Z M 182.085938 163.730469 "/>
<path style=" stroke:none;fill-rule:nonzero;fill:rgb(62.745098%,38.039216%,41.568627%);fill-opacity:1;" d="M 216.359375 173.414062 C 217.703125 172.527344 218.585938 171.085938 218.765625 169.484375 C 218.949219 167.878906 218.414062 166.277344 217.304688 165.109375 L 226.179688 147.894531 L 216.183594 148.964844 L 209.285156 165.148438 C 207.414062 167.191406 207.359375 170.3125 209.164062 172.417969 C 210.964844 174.523438 214.050781 174.953125 216.355469 173.417969 Z M 216.359375 173.414062 "/>
<path style=" stroke:none;fill-rule:nonzero;fill:rgb(0%,85.490196%,89.411765%);fill-opacity:1;" d="M 218.257812 162.074219 C 217.769531 162.003906 217.308594 161.785156 216.945312 161.449219 L 213.546875 158.304688 C 212.796875 157.609375 212.5625 156.511719 212.957031 155.566406 L 219.746094 139.453125 L 218.78125 107.617188 C 219.367188 103.316406 223.324219 100.304688 227.621094 100.894531 C 231.917969 101.480469 234.925781 105.441406 234.339844 109.742188 L 235.984375 129.753906 C 236.484375 135.828125 234.765625 141.878906 231.144531 146.777344 L 220.558594 161.109375 C 220.144531 161.664062 219.515625 162.019531 218.828125 162.085938 C 218.640625 162.105469 218.449219 162.101562 218.257812 162.074219 Z M 218.257812 162.074219 "/>
<path style=" stroke:none;fill-rule:nonzero;fill:rgb(62.745098%,38.039216%,41.568627%);fill-opacity:1;" d="M 136.101562 67.429688 C 136.394531 69.019531 137.375 70.394531 138.777344 71.1875 C 140.179688 71.980469 141.863281 72.109375 143.371094 71.542969 L 155.742188 86.441406 L 158.65625 76.804688 L 146.460938 64.132812 C 145.308594 61.613281 142.460938 60.347656 139.824219 61.1875 C 137.183594 62.027344 135.585938 64.707031 136.101562 67.429688 Z M 136.101562 67.429688 "/>
<path style=" stroke:none;fill-rule:nonzero;fill:rgb(0%,85.490196%,89.411765%);fill-opacity:1;" d="M 145.789062 73.605469 C 146.046875 73.179688 146.425781 72.84375 146.875 72.636719 L 151.09375 70.730469 C 152.027344 70.3125 153.125 70.519531 153.84375 71.253906 L 166.015625 83.796875 L 195.667969 95.320312 C 199.398438 97.539062 200.628906 102.363281 198.410156 106.097656 C 196.195312 109.828125 191.375 111.054688 187.648438 108.835938 L 168.601562 102.550781 C 162.820312 100.644531 157.929688 96.699219 154.835938 91.453125 L 145.78125 76.101562 C 145.429688 75.503906 145.347656 74.785156 145.558594 74.125 C 145.613281 73.945312 145.691406 73.769531 145.792969 73.605469 Z M 145.789062 73.605469 "/>
<use xlink:href="#surface5" mask="url(#mask0)"/>
<path style=" stroke:none;fill-rule:nonzero;fill:rgb(18.431373%,18.039216%,25.490196%);fill-opacity:1;" d="M 203.679688 68.011719 C 205.050781 69.636719 207.371094 70.097656 209.515625 70.285156 C 213.863281 70.664062 220.1875 70.046875 224.4375 69.0625 C 224.742188 72.007812 223.914062 75.183594 225.644531 77.605469 C 226.457031 74.671875 226.929688 71.65625 227.050781 68.617188 C 227.105469 67.316406 227.082031 65.964844 226.554688 64.765625 C 226.027344 63.570312 224.871094 62.554688 223.542969 62.542969 C 224.53125 61.792969 225.6875 61.296875 226.910156 61.101562 L 222.703125 58.984375 L 223.785156 57.875 L 216.164062 57.40625 L 218.371094 56.003906 C 215.050781 55.546875 211.691406 55.441406 208.347656 55.6875 C 206.796875 55.804688 205.171875 56.023438 203.914062 56.921875 C 202.660156 57.824219 201.929688 59.613281 202.710938 60.933594 C 200.726562 61.261719 199.046875 62.59375 198.277344 64.457031 C 197.71875 65.882812 197.769531 67.460938 197.941406 68.980469 C 198.226562 71.40625 198.792969 73.789062 199.621094 76.085938 "/>
<path style=" stroke:none;fill-rule:nonzero;fill:rgb(100%,100%,100%);fill-opacity:1;" d="M 260.53125 34.652344 L 139.347656 62.667969 C 138.109375 62.949219 136.875 62.179688 136.585938 60.9375 L 129.648438 30.839844 C 129.363281 29.597656 130.132812 28.359375 131.375 28.074219 L 252.558594 0.0585938 C 253.796875 -0.226562 255.03125 0.546875 255.320312 1.789062 L 262.257812 31.886719 C 262.542969 33.128906 261.769531 34.363281 260.53125 34.652344 Z M 260.53125 34.652344 "/>
<path style=" stroke:none;fill-rule:nonzero;fill:rgb(90.196078%,90.196078%,90.196078%);fill-opacity:1;" d="M 260.53125 34.652344 L 139.347656 62.667969 C 138.109375 62.949219 136.875 62.179688 136.585938 60.9375 L 129.648438 30.839844 C 129.363281 29.597656 130.132812 28.359375 131.375 28.074219 L 252.558594 0.0585938 C 253.796875 -0.226562 255.03125 0.546875 255.320312 1.789062 L 262.257812 31.886719 C 262.542969 33.128906 261.769531 34.363281 260.53125 34.652344 Z M 131.582031 28.972656 C 130.835938 29.144531 130.375 29.886719 130.542969 30.632812 L 137.484375 60.730469 C 137.65625 61.476562 138.398438 61.9375 139.140625 61.769531 L 260.324219 33.753906 C 261.070312 33.582031 261.53125 32.839844 261.363281 32.09375 L 254.421875 1.996094 C 254.25 1.25 253.507812 0.785156 252.765625 0.957031 Z M 131.582031 28.972656 "/>
<path style=" stroke:none;fill-rule:nonzero;fill:rgb(90.196078%,90.196078%,90.196078%);fill-opacity:1;" d="M 173.628906 28.878906 C 172.789062 29.070312 172.261719 29.910156 172.453125 30.753906 C 172.648438 31.597656 173.484375 32.125 174.328125 31.929688 L 174.332031 31.929688 L 246.160156 15.324219 C 247 15.128906 247.523438 14.289062 247.328125 13.449219 C 247.132812 12.605469 246.296875 12.082031 245.457031 12.273438 Z M 173.628906 28.878906 "/>
<path style=" stroke:none;fill-rule:nonzero;fill:rgb(90.196078%,90.196078%,90.196078%);fill-opacity:1;" d="M 175.742188 38.03125 C 174.898438 38.226562 174.371094 39.066406 174.566406 39.910156 C 174.757812 40.75 175.597656 41.277344 176.4375 41.085938 L 176.445312 41.082031 L 207.351562 33.9375 C 208.191406 33.746094 208.71875 32.90625 208.523438 32.0625 C 208.332031 31.21875 207.492188 30.695312 206.652344 30.886719 L 206.648438 30.886719 Z M 175.742188 38.03125 "/>
<path style=" stroke:none;fill-rule:nonzero;fill:rgb(0%,85.490196%,89.411765%);fill-opacity:1;" d="M 163.375 39.773438 C 163.375 44.960938 159.175781 49.167969 153.996094 49.167969 C 148.8125 49.167969 144.613281 44.960938 144.613281 39.773438 C 144.613281 34.585938 148.8125 30.378906 153.996094 30.378906 C 159.175781 30.378906 163.375 34.585938 163.375 39.773438 Z M 163.375 39.773438 "/>
<path style=" stroke:none;fill-rule:nonzero;fill:rgb(100%,100%,100%);fill-opacity:1;" d="M 153.730469 45.191406 C 153.421875 45.261719 153.101562 45.234375 152.8125 45.105469 L 152.796875 45.097656 L 149.019531 43.382812 C 148.542969 43.164062 148.21875 42.710938 148.167969 42.1875 C 148.117188 41.667969 148.347656 41.15625 148.773438 40.851562 C 149.199219 40.546875 149.757812 40.496094 150.234375 40.710938 L 152.679688 41.828125 L 156.109375 34.277344 C 156.445312 33.539062 157.3125 33.214844 158.046875 33.550781 L 158.027344 33.601562 L 158.046875 33.550781 C 158.78125 33.886719 159.109375 34.753906 158.773438 35.492188 L 154.738281 44.371094 C 154.546875 44.785156 154.175781 45.089844 153.730469 45.191406 Z M 153.730469 45.191406 "/>
</g>
</svg>
