<?xml version="1.0" encoding="UTF-8"?>
<svg xmlns="http://www.w3.org/2000/svg" xmlns:xlink="http://www.w3.org/1999/xlink" width="px" height="200px" viewBox="0 0 239 200" version="1.1">
<defs>
<filter id="alpha" filterUnits="objectBoundingBox" x="0%" y="0%" width="100%" height="100%">
  <feColorMatrix type="matrix" in="SourceGraphic" values="0 0 0 0 1 0 0 0 0 1 0 0 0 0 1 0 0 0 1 0"/>
</filter>
<mask id="mask0">
  <g filter="url(#alpha)">
<rect x="0" y="0" width="239" height="200" style="fill:rgb(0%,0%,0%);fill-opacity:0.2;stroke:none;"/>
  </g>
</mask>
<clipPath id="clip1">
  <rect x="0" y="0" width="240" height="200"/>
</clipPath>
<g id="surface5" clip-path="url(#clip1)">
<path style=" stroke:none;fill-rule:nonzero;fill:rgb(0%,0%,0%);fill-opacity:1;" d="M 125.339844 123.65625 C 125.339844 123.976562 125.082031 124.238281 124.761719 124.238281 C 124.445312 124.238281 124.183594 123.976562 124.183594 123.65625 "/>
</g>
<mask id="mask1">
  <g filter="url(#alpha)">
<rect x="0" y="0" width="239" height="200" style="fill:rgb(0%,0%,0%);fill-opacity:0.2;stroke:none;"/>
  </g>
</mask>
<clipPath id="clip2">
  <rect x="0" y="0" width="240" height="200"/>
</clipPath>
<g id="surface8" clip-path="url(#clip2)">
<path style=" stroke:none;fill-rule:nonzero;fill:rgb(0%,0%,0%);fill-opacity:1;" d="M 188.851562 152.160156 C 188.851562 152.757812 188.367188 153.242188 187.769531 153.242188 C 187.175781 153.242188 186.691406 152.757812 186.691406 152.160156 "/>
</g>
</defs>
<g id="surface1">
<path style=" stroke:none;fill-rule:nonzero;fill:rgb(90.196078%,90.196078%,90.196078%);fill-opacity:1;" d="M 98.480469 47.066406 L 97.394531 47.066406 L 97.394531 17.253906 C 97.394531 7.726562 89.691406 0 80.1875 0 L 17.207031 0 C 7.703125 0 0 7.726562 0 17.253906 L 0 180.804688 C 0 190.332031 7.703125 198.058594 17.207031 198.058594 L 80.1875 198.058594 C 89.691406 198.058594 97.394531 190.332031 97.394531 180.804688 L 97.394531 68.285156 L 98.480469 68.285156 Z M 98.480469 47.066406 "/>
<path style=" stroke:none;fill-rule:nonzero;fill:rgb(100%,100%,100%);fill-opacity:1;" d="M 80.882812 4.488281 L 72.660156 4.488281 C 73.429688 6.375 73.210938 8.523438 72.074219 10.214844 C 70.941406 11.90625 69.042969 12.921875 67.007812 12.921875 L 30.925781 12.921875 C 28.894531 12.921875 26.996094 11.90625 25.859375 10.214844 C 24.726562 8.523438 24.507812 6.375 25.273438 4.488281 L 17.597656 4.488281 C 10.5 4.488281 4.746094 10.257812 4.746094 17.375 L 4.746094 180.683594 C 4.746094 187.800781 10.5 193.570312 17.597656 193.570312 L 80.882812 193.570312 C 87.976562 193.570312 93.730469 187.800781 93.730469 180.683594 L 93.730469 17.375 C 93.730469 10.257812 87.976562 4.488281 80.882812 4.488281 Z M 80.882812 4.488281 "/>
<path style=" stroke:none;fill-rule:nonzero;fill:rgb(90.196078%,90.196078%,90.196078%);fill-opacity:1;" d="M 30.59375 37.6875 L 26.816406 37.6875 C 26.539062 37.6875 26.316406 37.914062 26.316406 38.191406 L 26.316406 39.855469 C 26.316406 40.132812 26.539062 40.355469 26.816406 40.355469 L 27.441406 40.355469 L 27.441406 42.847656 L 29.96875 42.847656 L 29.96875 40.355469 L 30.59375 40.355469 C 30.871094 40.355469 31.09375 40.132812 31.09375 39.855469 L 31.09375 38.191406 C 31.09375 37.914062 30.871094 37.6875 30.59375 37.6875 Z M 30.59375 37.6875 "/>
<path style=" stroke:none;fill-rule:nonzero;fill:rgb(90.196078%,90.196078%,90.196078%);fill-opacity:1;" d="M 34.378906 52.910156 C 32.066406 49.515625 30.882812 45.472656 31 41.359375 C 31.003906 41.164062 30.871094 40.992188 30.679688 40.949219 L 30.679688 40.230469 L 26.6875 40.230469 L 26.6875 40.941406 L 26.632812 40.941406 C 26.40625 40.941406 26.222656 41.125 26.226562 41.351562 C 26.226562 41.359375 26.226562 41.371094 26.226562 41.382812 C 26.539062 45.777344 25.480469 49.71875 23.042969 53.203125 C 22.902344 53.40625 22.828125 53.644531 22.835938 53.890625 L 23.273438 67.425781 C 23.296875 68.054688 23.804688 68.550781 24.433594 68.558594 L 33.457031 68.558594 C 34.089844 68.550781 34.605469 68.042969 34.617188 67.40625 L 34.785156 54.265625 C 34.789062 53.78125 34.648438 53.308594 34.378906 52.910156 Z M 34.378906 52.910156 "/>
<path style=" stroke:none;fill-rule:nonzero;fill:rgb(100%,100%,100%);fill-opacity:1;" d="M 32.949219 57.40625 L 25.09375 57.40625 C 24.859375 57.40625 24.632812 57.507812 24.480469 57.6875 C 24.328125 57.867188 24.261719 58.105469 24.296875 58.339844 L 25.484375 66.078125 L 32.300781 66.078125 L 33.742188 58.363281 C 33.785156 58.128906 33.722656 57.882812 33.570312 57.699219 C 33.417969 57.511719 33.191406 57.40625 32.949219 57.40625 Z M 32.949219 57.40625 "/>
<path style=" stroke:none;fill-rule:nonzero;fill:rgb(90.196078%,90.196078%,90.196078%);fill-opacity:1;" d="M 72.65625 78.238281 L 68.878906 78.238281 C 68.601562 78.238281 68.378906 78.460938 68.378906 78.738281 L 68.378906 80.402344 C 68.378906 80.679688 68.601562 80.90625 68.878906 80.90625 L 69.503906 80.90625 L 69.503906 83.398438 L 72.03125 83.398438 L 72.03125 80.90625 L 72.65625 80.90625 C 72.933594 80.90625 73.160156 80.679688 73.160156 80.402344 L 73.160156 78.738281 C 73.160156 78.460938 72.933594 78.238281 72.65625 78.238281 Z M 72.65625 78.238281 "/>
<path style=" stroke:none;fill-rule:nonzero;fill:rgb(90.196078%,90.196078%,90.196078%);fill-opacity:1;" d="M 76.441406 93.460938 C 74.128906 90.0625 72.945312 86.019531 73.0625 81.910156 C 73.066406 81.714844 72.933594 81.542969 72.742188 81.5 L 72.742188 80.78125 L 68.75 80.78125 L 68.75 81.488281 L 68.695312 81.488281 C 68.46875 81.488281 68.289062 81.671875 68.289062 81.898438 C 68.289062 81.910156 68.289062 81.921875 68.289062 81.929688 C 68.601562 86.324219 67.542969 90.265625 65.105469 93.753906 C 64.964844 93.953125 64.890625 94.195312 64.898438 94.441406 L 65.335938 107.976562 C 65.359375 108.601562 65.867188 109.101562 66.496094 109.105469 L 75.519531 109.105469 C 76.15625 109.101562 76.667969 108.589844 76.679688 107.957031 L 76.847656 94.8125 C 76.851562 94.332031 76.710938 93.859375 76.441406 93.460938 Z M 76.441406 93.460938 "/>
<path style=" stroke:none;fill-rule:nonzero;fill:rgb(100%,100%,100%);fill-opacity:1;" d="M 75.011719 97.957031 L 67.15625 97.957031 C 66.921875 97.957031 66.699219 98.058594 66.542969 98.238281 C 66.390625 98.417969 66.324219 98.652344 66.359375 98.886719 L 67.546875 106.625 L 74.363281 106.625 L 75.804688 98.914062 C 75.851562 98.675781 75.785156 98.433594 75.632812 98.246094 C 75.480469 98.0625 75.253906 97.957031 75.011719 97.957031 Z M 75.011719 97.957031 "/>
<path style=" stroke:none;fill-rule:nonzero;fill:rgb(90.196078%,90.196078%,90.196078%);fill-opacity:1;" d="M 25.28125 135.5625 L 23.488281 135.5625 C 23.359375 135.5625 23.253906 135.667969 23.253906 135.800781 L 23.253906 136.589844 C 23.253906 136.722656 23.359375 136.828125 23.488281 136.828125 L 23.785156 136.828125 L 23.785156 138.007812 L 24.984375 138.007812 L 24.984375 136.828125 L 25.28125 136.828125 C 25.414062 136.828125 25.519531 136.722656 25.519531 136.589844 L 25.519531 135.800781 C 25.519531 135.667969 25.414062 135.5625 25.28125 135.5625 Z M 25.28125 135.5625 "/>
<path style=" stroke:none;fill-rule:nonzero;fill:rgb(90.196078%,90.196078%,90.196078%);fill-opacity:1;" d="M 27.078125 142.78125 C 25.980469 141.171875 25.417969 139.253906 25.472656 137.304688 C 25.476562 137.210938 25.414062 137.128906 25.324219 137.109375 L 25.324219 136.769531 L 23.429688 136.769531 L 23.429688 137.105469 L 23.402344 137.105469 C 23.296875 137.105469 23.210938 137.191406 23.210938 137.300781 C 23.210938 137.304688 23.210938 137.308594 23.210938 137.3125 C 23.382812 139.304688 22.847656 141.292969 21.699219 142.921875 C 21.632812 143.015625 21.597656 143.132812 21.601562 143.246094 L 21.808594 149.667969 C 21.820312 149.964844 22.0625 150.203125 22.359375 150.203125 L 26.640625 150.203125 C 26.941406 150.203125 27.183594 149.960938 27.191406 149.660156 L 27.269531 143.425781 C 27.273438 143.195312 27.207031 142.972656 27.078125 142.78125 Z M 27.078125 142.78125 "/>
<path style=" stroke:none;fill-rule:nonzero;fill:rgb(100%,100%,100%);fill-opacity:1;" d="M 22.375 145.140625 L 26.460938 145.140625 L 26.460938 147.191406 L 22.375 147.191406 Z M 22.375 145.140625 "/>
<path style=" stroke:none;fill-rule:nonzero;fill:rgb(90.196078%,90.196078%,90.196078%);fill-opacity:1;" d="M 33.625 135.5625 L 31.832031 135.5625 C 31.703125 135.5625 31.59375 135.667969 31.59375 135.800781 L 31.59375 136.589844 C 31.59375 136.722656 31.703125 136.828125 31.832031 136.828125 L 32.128906 136.828125 L 32.128906 138.007812 L 33.328125 138.007812 L 33.328125 136.828125 L 33.625 136.828125 C 33.757812 136.828125 33.863281 136.722656 33.863281 136.589844 L 33.863281 135.800781 C 33.863281 135.667969 33.757812 135.5625 33.625 135.5625 Z M 33.625 135.5625 "/>
<path style=" stroke:none;fill-rule:nonzero;fill:rgb(90.196078%,90.196078%,90.196078%);fill-opacity:1;" d="M 35.421875 142.78125 C 34.324219 141.171875 33.761719 139.253906 33.816406 137.304688 C 33.820312 137.210938 33.757812 137.128906 33.664062 137.109375 L 33.664062 136.769531 L 31.773438 136.769531 L 31.773438 137.105469 L 31.746094 137.105469 C 31.640625 137.105469 31.554688 137.191406 31.554688 137.300781 C 31.554688 137.304688 31.554688 137.308594 31.554688 137.3125 C 31.726562 139.304688 31.191406 141.292969 30.042969 142.921875 C 29.976562 143.015625 29.941406 143.132812 29.945312 143.246094 L 30.152344 149.667969 C 30.164062 149.964844 30.40625 150.203125 30.703125 150.203125 L 34.984375 150.203125 C 35.285156 150.203125 35.527344 149.960938 35.535156 149.660156 L 35.613281 143.425781 C 35.617188 143.195312 35.546875 142.972656 35.421875 142.78125 Z M 35.421875 142.78125 "/>
<path style=" stroke:none;fill-rule:nonzero;fill:rgb(100%,100%,100%);fill-opacity:1;" d="M 30.71875 145.140625 L 34.804688 145.140625 L 34.804688 147.191406 L 30.71875 147.191406 Z M 30.71875 145.140625 "/>
<path style=" stroke:none;fill-rule:nonzero;fill:rgb(90.196078%,90.196078%,90.196078%);fill-opacity:1;" d="M 41.96875 135.5625 L 40.175781 135.5625 C 40.046875 135.5625 39.9375 135.667969 39.9375 135.800781 L 39.9375 136.589844 C 39.9375 136.722656 40.046875 136.828125 40.175781 136.828125 L 40.472656 136.828125 L 40.472656 138.007812 L 41.671875 138.007812 L 41.671875 136.828125 L 41.96875 136.828125 C 42.101562 136.828125 42.207031 136.722656 42.207031 136.589844 L 42.207031 135.800781 C 42.207031 135.667969 42.101562 135.5625 41.96875 135.5625 Z M 41.96875 135.5625 "/>
<path style=" stroke:none;fill-rule:nonzero;fill:rgb(90.196078%,90.196078%,90.196078%);fill-opacity:1;" d="M 43.765625 142.78125 C 42.667969 141.171875 42.105469 139.253906 42.160156 137.304688 C 42.164062 137.210938 42.101562 137.128906 42.007812 137.109375 L 42.007812 136.769531 L 40.117188 136.769531 L 40.117188 137.105469 L 40.089844 137.105469 C 39.984375 137.105469 39.894531 137.191406 39.894531 137.300781 C 39.894531 137.304688 39.898438 137.308594 39.898438 137.3125 C 40.070312 139.304688 39.535156 141.292969 38.386719 142.921875 C 38.320312 143.015625 38.285156 143.132812 38.289062 143.246094 L 38.496094 149.667969 C 38.507812 149.964844 38.75 150.203125 39.046875 150.203125 L 43.328125 150.203125 C 43.628906 150.203125 43.871094 149.960938 43.878906 149.660156 L 43.957031 143.425781 C 43.960938 143.195312 43.890625 142.972656 43.765625 142.78125 Z M 43.765625 142.78125 "/>
<path style=" stroke:none;fill-rule:nonzero;fill:rgb(100%,100%,100%);fill-opacity:1;" d="M 39.0625 145.140625 L 43.148438 145.140625 L 43.148438 147.191406 L 39.0625 147.191406 Z M 39.0625 145.140625 "/>
<path style=" stroke:none;fill-rule:nonzero;fill:rgb(90.196078%,90.196078%,90.196078%);fill-opacity:1;" d="M 66.09375 119.875 L 62.3125 119.875 C 62.039062 119.875 61.8125 120.101562 61.8125 120.378906 L 61.8125 122.039062 C 61.8125 122.316406 62.039062 122.542969 62.3125 122.542969 L 62.941406 122.542969 L 62.941406 125.035156 L 65.46875 125.035156 L 65.46875 122.542969 L 66.09375 122.542969 C 66.371094 122.542969 66.59375 122.316406 66.59375 122.039062 L 66.59375 120.378906 C 66.59375 120.101562 66.371094 119.875 66.09375 119.875 Z M 66.09375 119.875 "/>
<path style=" stroke:none;fill-rule:nonzero;fill:rgb(90.196078%,90.196078%,90.196078%);fill-opacity:1;" d="M 69.878906 135.097656 C 67.5625 131.699219 66.378906 127.65625 66.5 123.546875 C 66.503906 123.351562 66.367188 123.179688 66.179688 123.136719 L 66.179688 122.417969 L 62.1875 122.417969 L 62.1875 123.125 L 62.132812 123.125 C 61.90625 123.125 61.722656 123.3125 61.722656 123.539062 C 61.722656 123.546875 61.722656 123.558594 61.726562 123.566406 C 62.039062 127.960938 60.976562 131.902344 58.539062 135.390625 C 58.398438 135.59375 58.328125 135.832031 58.335938 136.078125 L 58.773438 149.613281 C 58.792969 150.242188 59.304688 150.738281 59.929688 150.746094 L 68.957031 150.746094 C 69.589844 150.738281 70.105469 150.230469 70.117188 149.59375 L 70.285156 136.449219 C 70.289062 135.96875 70.148438 135.496094 69.878906 135.097656 Z M 69.878906 135.097656 "/>
<path style=" stroke:none;fill-rule:nonzero;fill:rgb(100%,100%,100%);fill-opacity:1;" d="M 68.449219 139.59375 L 60.59375 139.59375 C 60.355469 139.59375 60.132812 139.695312 59.980469 139.875 C 59.828125 140.054688 59.757812 140.292969 59.792969 140.523438 L 60.980469 148.265625 L 67.800781 148.265625 L 69.242188 140.550781 C 69.285156 140.316406 69.222656 140.070312 69.070312 139.886719 C 68.917969 139.699219 68.6875 139.59375 68.449219 139.59375 Z M 68.449219 139.59375 "/>
<path style=" stroke:none;fill-rule:nonzero;fill:rgb(90.196078%,90.196078%,90.196078%);fill-opacity:1;" d="M 68.15625 70.300781 L 45.632812 70.300781 C 47.207031 61.761719 46.84375 51.453125 45.632812 40.363281 L 68.15625 40.363281 C 66.976562 51.453125 66.621094 61.761719 68.15625 70.300781 Z M 68.15625 70.300781 "/>
<path style=" stroke:none;fill-rule:nonzero;fill:rgb(100%,100%,100%);fill-opacity:1;" d="M 62.457031 54.515625 C 62.457031 57.523438 60.027344 59.957031 57.03125 59.957031 C 54.03125 59.957031 51.601562 57.523438 51.601562 54.515625 C 51.601562 51.511719 54.03125 49.074219 57.03125 49.074219 C 60.027344 49.074219 62.457031 51.511719 62.457031 54.515625 Z M 62.457031 54.515625 "/>
<path style=" stroke:none;fill-rule:nonzero;fill:rgb(90.196078%,90.196078%,90.196078%);fill-opacity:1;" d="M 47.53125 110.03125 L 25.007812 110.03125 C 26.582031 101.496094 26.21875 91.183594 25.007812 80.097656 L 47.53125 80.097656 C 46.351562 91.183594 46 101.496094 47.53125 110.03125 Z M 47.53125 110.03125 "/>
<path style=" stroke:none;fill-rule:nonzero;fill:rgb(100%,100%,100%);fill-opacity:1;" d="M 41.832031 94.25 C 41.832031 97.253906 39.402344 99.691406 36.40625 99.691406 C 33.40625 99.691406 30.976562 97.253906 30.976562 94.25 C 30.976562 91.242188 33.40625 88.804688 36.40625 88.804688 C 39.402344 88.804688 41.832031 91.242188 41.832031 94.25 Z M 41.832031 94.25 "/>
<path style=" stroke:none;fill-rule:nonzero;fill:rgb(90.196078%,90.196078%,90.196078%);fill-opacity:1;" d="M 80.910156 72.207031 L 58.386719 72.207031 C 59.960938 63.667969 59.597656 53.355469 58.386719 42.269531 L 80.910156 42.269531 C 79.730469 53.355469 79.378906 63.667969 80.910156 72.207031 Z M 80.910156 72.207031 "/>
<path style=" stroke:none;fill-rule:nonzero;fill:rgb(100%,100%,100%);fill-opacity:1;" d="M 75.210938 56.421875 C 75.210938 59.425781 72.78125 61.863281 69.785156 61.863281 C 66.785156 61.863281 64.355469 59.425781 64.355469 56.421875 C 64.355469 53.414062 66.785156 50.976562 69.785156 50.976562 C 72.78125 50.976562 75.210938 53.414062 75.210938 56.421875 Z M 75.210938 56.421875 "/>
<path style=" stroke:none;fill-rule:nonzero;fill:rgb(90.196078%,90.196078%,90.196078%);fill-opacity:1;" d="M 80.910156 70.84375 L 58.386719 70.84375 C 59.960938 62.304688 59.597656 51.996094 58.386719 40.910156 L 80.910156 40.910156 C 79.730469 51.996094 79.378906 62.304688 80.910156 70.84375 Z M 80.910156 70.84375 "/>
<path style=" stroke:none;fill-rule:nonzero;fill:rgb(100%,100%,100%);fill-opacity:1;" d="M 75.210938 55.058594 C 75.210938 58.066406 72.78125 60.503906 69.785156 60.503906 C 66.785156 60.503906 64.355469 58.066406 64.355469 55.058594 C 64.355469 52.054688 66.785156 49.617188 69.785156 49.617188 C 72.78125 49.617188 75.210938 52.054688 75.210938 55.058594 Z M 75.210938 55.058594 "/>
<path style=" stroke:none;fill-rule:nonzero;fill:rgb(90.196078%,90.196078%,90.196078%);fill-opacity:1;" d="M 80.910156 72.207031 L 58.386719 72.207031 C 59.960938 63.667969 59.597656 53.355469 58.386719 42.269531 L 80.910156 42.269531 C 79.730469 53.355469 79.378906 63.667969 80.910156 72.207031 Z M 80.910156 72.207031 "/>
<path style=" stroke:none;fill-rule:nonzero;fill:rgb(100%,100%,100%);fill-opacity:1;" d="M 75.210938 56.421875 C 75.210938 59.425781 72.78125 61.863281 69.785156 61.863281 C 66.785156 61.863281 64.355469 59.425781 64.355469 56.421875 C 64.355469 53.414062 66.785156 50.976562 69.785156 50.976562 C 72.78125 50.976562 75.210938 53.414062 75.210938 56.421875 Z M 75.210938 56.421875 "/>
<path style=" stroke:none;fill-rule:nonzero;fill:rgb(90.196078%,90.196078%,90.196078%);fill-opacity:1;" d="M 12.253906 68.667969 L 86.066406 68.667969 L 86.066406 76.832031 L 12.253906 76.832031 Z M 12.253906 68.667969 "/>
<path style=" stroke:none;fill-rule:nonzero;fill:rgb(90.196078%,90.196078%,90.196078%);fill-opacity:1;" d="M 12.253906 109.214844 L 86.066406 109.214844 L 86.066406 117.378906 L 12.253906 117.378906 Z M 12.253906 109.214844 "/>
<path style=" stroke:none;fill-rule:nonzero;fill:rgb(90.196078%,90.196078%,90.196078%);fill-opacity:1;" d="M 12.253906 149.765625 L 86.066406 149.765625 L 86.066406 157.929688 L 12.253906 157.929688 Z M 12.253906 149.765625 "/>
<path style=" stroke:none;fill-rule:nonzero;fill:rgb(0%,85.490196%,89.411765%);fill-opacity:1;" d="M 214.46875 182.886719 L 196.078125 169.84375 C 202.28125 163.785156 207.921875 155.160156 213.316406 145.402344 L 231.707031 158.449219 C 224.359375 166.816406 218.132812 175.03125 214.46875 182.886719 Z M 214.46875 182.886719 "/>
<path style=" stroke:none;fill-rule:nonzero;fill:rgb(100%,100%,100%);fill-opacity:1;" d="M 219.902344 163.558594 C 219.902344 166.5625 217.472656 169 214.472656 169 C 211.476562 169 209.046875 166.5625 209.046875 163.558594 C 209.046875 160.550781 211.476562 158.113281 214.472656 158.113281 C 217.472656 158.113281 219.902344 160.550781 219.902344 163.558594 Z M 219.902344 163.558594 "/>
<path style=" stroke:none;fill-rule:nonzero;fill:rgb(90.196078%,90.196078%,90.196078%);fill-opacity:1;" d="M 125.761719 123.367188 L 123.742188 123.367188 C 123.59375 123.367188 123.476562 123.488281 123.476562 123.636719 L 123.476562 124.523438 C 123.476562 124.671875 123.59375 124.792969 123.742188 124.792969 L 124.078125 124.792969 L 124.078125 126.125 L 125.425781 126.125 L 125.425781 124.792969 L 125.761719 124.792969 C 125.910156 124.792969 126.027344 124.671875 126.027344 124.523438 L 126.027344 123.636719 C 126.027344 123.488281 125.910156 123.367188 125.761719 123.367188 Z M 125.761719 123.367188 "/>
<path style=" stroke:none;fill-rule:nonzero;fill:rgb(0%,85.490196%,89.411765%);fill-opacity:1;" d="M 127.78125 131.5 C 126.546875 129.6875 125.914062 127.527344 125.976562 125.328125 C 125.980469 125.226562 125.90625 125.132812 125.804688 125.109375 L 125.804688 124.726562 L 123.675781 124.726562 L 123.675781 125.105469 L 123.644531 125.105469 C 123.523438 125.105469 123.425781 125.203125 123.425781 125.324219 C 123.425781 125.328125 123.425781 125.335938 123.425781 125.339844 C 123.625 127.582031 123.019531 129.820312 121.726562 131.65625 C 121.652344 131.765625 121.613281 131.894531 121.617188 132.023438 L 121.851562 139.253906 C 121.863281 139.589844 122.132812 139.855469 122.46875 139.859375 L 127.289062 139.859375 C 127.628906 139.855469 127.902344 139.582031 127.910156 139.242188 L 128 132.222656 C 128.003906 131.964844 127.925781 131.714844 127.78125 131.5 Z M 127.78125 131.5 "/>
<use xlink:href="#surface5" mask="url(#mask0)"/>
<path style=" stroke:none;fill-rule:nonzero;fill:rgb(100%,100%,100%);fill-opacity:1;" d="M 122.773438 132.894531 L 126.84375 132.894531 L 126.84375 135.613281 L 122.773438 135.613281 Z M 122.773438 132.894531 "/>
<path style=" stroke:none;fill-rule:nonzero;fill:rgb(90.196078%,90.196078%,90.196078%);fill-opacity:1;" d="M 189.640625 151.617188 L 185.859375 151.617188 C 185.585938 151.617188 185.359375 151.84375 185.359375 152.121094 L 185.359375 153.78125 C 185.359375 154.058594 185.585938 154.285156 185.859375 154.285156 L 186.488281 154.285156 L 186.488281 156.777344 L 189.011719 156.777344 L 189.011719 154.285156 L 189.640625 154.285156 C 189.917969 154.285156 190.140625 154.058594 190.140625 153.78125 L 190.140625 152.121094 C 190.140625 151.84375 189.917969 151.617188 189.640625 151.617188 Z M 189.640625 151.617188 "/>
<path style=" stroke:none;fill-rule:nonzero;fill:rgb(0%,85.490196%,89.411765%);fill-opacity:1;" d="M 193.425781 166.839844 C 191.109375 163.441406 189.925781 159.398438 190.042969 155.289062 C 190.050781 155.09375 189.914062 154.921875 189.726562 154.878906 L 189.726562 154.160156 L 185.734375 154.160156 L 185.734375 154.867188 L 185.679688 154.867188 C 185.453125 154.871094 185.269531 155.054688 185.269531 155.28125 C 185.269531 155.289062 185.269531 155.300781 185.269531 155.308594 C 185.585938 159.703125 184.523438 163.644531 182.085938 167.132812 C 181.945312 167.335938 181.875 167.574219 181.882812 167.820312 L 182.320312 181.355469 C 182.339844 181.984375 182.851562 182.480469 183.476562 182.488281 L 192.503906 182.488281 C 193.136719 182.480469 193.652344 181.972656 193.664062 181.335938 L 193.832031 168.191406 C 193.835938 167.710938 193.695312 167.238281 193.425781 166.839844 Z M 193.425781 166.839844 "/>
<use xlink:href="#surface8" mask="url(#mask1)"/>
<path style=" stroke:none;fill-rule:nonzero;fill:rgb(100%,100%,100%);fill-opacity:1;" d="M 191.996094 171.335938 L 184.136719 171.335938 C 183.902344 171.335938 183.679688 171.4375 183.527344 171.617188 C 183.375 171.796875 183.304688 172.035156 183.339844 172.265625 L 184.527344 180.007812 L 191.347656 180.007812 L 192.789062 172.292969 C 192.832031 172.058594 192.769531 171.8125 192.617188 171.628906 C 192.460938 171.441406 192.234375 171.335938 191.996094 171.335938 Z M 191.996094 171.335938 "/>
<path style=" stroke:none;fill-rule:nonzero;fill:rgb(0%,85.490196%,89.411765%);fill-opacity:1;" d="M 178.859375 182.867188 L 156.335938 182.867188 C 157.910156 174.328125 157.546875 164.019531 156.335938 152.929688 L 178.859375 152.929688 C 177.679688 164.019531 177.324219 174.328125 178.859375 182.867188 Z M 178.859375 182.867188 "/>
<path style=" stroke:none;fill-rule:nonzero;fill:rgb(100%,100%,100%);fill-opacity:1;" d="M 173.160156 167.082031 C 173.160156 170.089844 170.730469 172.523438 167.730469 172.523438 C 164.734375 172.523438 162.304688 170.089844 162.304688 167.082031 C 162.304688 164.074219 164.734375 161.640625 167.730469 161.640625 C 170.730469 161.640625 173.160156 164.074219 173.160156 167.082031 Z M 173.160156 167.082031 "/>
<path style=" stroke:none;fill-rule:nonzero;fill:rgb(100%,72.156863%,72.156863%);fill-opacity:1;" d="M 86.730469 88.65625 L 91.785156 88.195312 L 95.003906 80.355469 L 89.257812 77.128906 Z M 86.730469 88.65625 "/>
<path style=" stroke:none;fill-rule:nonzero;fill:rgb(100%,72.156863%,72.156863%);fill-opacity:1;" d="M 133.136719 110.167969 C 133.476562 109.316406 133.386719 108.351562 132.898438 107.574219 C 132.40625 106.796875 131.574219 106.304688 130.660156 106.25 L 122.808594 105.78125 L 121.652344 109.636719 L 129.734375 111.863281 C 131.132812 112.246094 132.59375 111.519531 133.136719 110.167969 Z M 133.136719 110.167969 "/>
<path style=" stroke:none;fill-rule:nonzero;fill:rgb(34.117647%,35.294118%,53.72549%);fill-opacity:1;" d="M 124.703125 111.925781 L 124.617188 104.691406 L 107.179688 101.902344 L 93.746094 86.449219 C 92.300781 84.789062 89.851562 84.453125 88.015625 85.664062 C 86.925781 86.382812 86.210938 87.550781 86.0625 88.847656 C 85.914062 90.148438 86.347656 91.445312 87.25 92.390625 L 98.332031 106.070312 Z M 124.703125 111.925781 "/>
<path style=" stroke:none;fill-rule:nonzero;fill:rgb(18.431373%,18.039216%,25.490196%);fill-opacity:1;" d="M 82.824219 193.296875 L 87.417969 193.296875 L 98.820312 141.601562 L 110.632812 157.570312 L 117.527344 192.144531 L 121.894531 192.144531 L 120.976562 155.035156 L 105.578125 115.390625 L 90.40625 115.390625 C 86.261719 122.914062 83.011719 130.671875 86.730469 138.671875 Z M 82.824219 193.296875 "/>
<path style=" stroke:none;fill-rule:nonzero;fill:rgb(18.431373%,18.039216%,25.490196%);fill-opacity:1;" d="M 114.710938 196.4375 C 114.609375 196.765625 114.652344 197.125 114.832031 197.421875 C 115.007812 197.714844 115.304688 197.921875 115.644531 197.980469 L 126.894531 199.984375 C 127.8125 200.152344 128.714844 199.605469 128.992188 198.710938 C 129.265625 197.855469 128.886719 196.933594 128.09375 196.515625 C 125.621094 195.242188 123.492188 193.386719 121.890625 191.109375 C 120.65625 192.261719 119.273438 192.15625 117.804688 191.304688 L 116.25 191.5 Z M 114.710938 196.4375 "/>
<path style=" stroke:none;fill-rule:nonzero;fill:rgb(18.431373%,18.039216%,25.490196%);fill-opacity:1;" d="M 80.695312 196.4375 C 80.589844 196.765625 80.636719 197.125 80.8125 197.421875 C 80.992188 197.714844 81.289062 197.921875 81.628906 197.980469 L 92.878906 199.984375 C 93.796875 200.152344 94.699219 199.605469 94.976562 198.710938 C 95.25 197.855469 94.867188 196.933594 94.078125 196.515625 C 91.605469 195.242188 89.476562 193.386719 87.875 191.109375 C 86.636719 192.261719 85.257812 192.15625 83.789062 191.304688 L 82.234375 191.5 Z M 80.695312 196.4375 "/>
<path style=" stroke:none;fill-rule:nonzero;fill:rgb(100%,72.156863%,72.156863%);fill-opacity:1;" d="M 101.554688 76.785156 C 101.554688 80.347656 98.671875 83.238281 95.117188 83.238281 C 91.566406 83.238281 88.683594 80.347656 88.683594 76.785156 C 88.683594 73.21875 91.566406 70.332031 95.117188 70.332031 C 98.671875 70.332031 101.554688 73.21875 101.554688 76.785156 Z M 101.554688 76.785156 "/>
<path style=" stroke:none;fill-rule:nonzero;fill:rgb(34.117647%,35.294118%,53.72549%);fill-opacity:1;" d="M 89.371094 117.121094 L 106.152344 116.660156 L 101.222656 101.109375 C 104.285156 96.183594 101.203125 91.265625 96.84375 86.351562 L 93.394531 84.046875 L 87.878906 83.585938 C 85.492188 86.148438 84.183594 89.535156 84.230469 93.042969 C 84.339844 100.554688 85.667969 108.730469 89.371094 117.121094 Z M 89.371094 117.121094 "/>
<path style=" stroke:none;fill-rule:nonzero;fill:rgb(100%,72.156863%,72.156863%);fill-opacity:1;" d="M 127.921875 127.589844 C 128.570312 126.9375 128.867188 126.015625 128.722656 125.109375 C 128.574219 124.203125 128 123.421875 127.183594 123.007812 L 120.148438 119.480469 L 117.574219 122.570312 L 124.128906 127.804688 C 125.265625 128.707031 126.894531 128.617188 127.921875 127.589844 Z M 127.921875 127.589844 "/>
<path style=" stroke:none;fill-rule:nonzero;fill:rgb(34.117647%,35.294118%,53.72549%);fill-opacity:1;" d="M 119.480469 125.878906 L 122.238281 119.195312 L 107.300781 109.75 L 101.011719 90.246094 C 100.335938 88.144531 98.214844 86.871094 96.050781 87.261719 C 94.769531 87.492188 93.652344 88.28125 93.007812 89.417969 C 92.363281 90.554688 92.253906 91.917969 92.707031 93.144531 L 97.53125 110.089844 Z M 119.480469 125.878906 "/>
<path style=" stroke:none;fill-rule:nonzero;fill:rgb(18.431373%,18.039216%,25.490196%);fill-opacity:1;" d="M 84.546875 74.25 C 84.546875 76.761719 86.171875 80.648438 88.222656 82.316406 C 89.605469 83.4375 91.429688 83.390625 92.132812 81.855469 C 92.851562 80.28125 95.339844 76.578125 99.714844 74.25 C 105.550781 71.144531 97.648438 65.832031 92.132812 66.644531 C 87.984375 67.25 84.546875 70.046875 84.546875 74.25 Z M 84.546875 74.25 "/>
<path style=" stroke:none;fill-rule:nonzero;fill:rgb(18.431373%,18.039216%,25.490196%);fill-opacity:1;" d="M 93.050781 66.183594 C 93.050781 68.726562 90.992188 70.792969 88.453125 70.792969 C 85.914062 70.792969 83.855469 68.726562 83.855469 66.183594 C 83.855469 63.636719 85.914062 61.574219 88.453125 61.574219 C 90.992188 61.574219 93.050781 63.636719 93.050781 66.183594 Z M 93.050781 66.183594 "/>
<path style=" stroke:none;fill-rule:nonzero;fill:rgb(18.431373%,18.039216%,25.490196%);fill-opacity:1;" d="M 93.738281 64.570312 C 93.738281 62.15625 91.886719 60.15625 89.488281 59.976562 C 89.601562 59.96875 89.714844 59.957031 89.832031 59.957031 C 92.371094 59.957031 94.429688 62.023438 94.429688 64.570312 C 94.429688 67.113281 92.371094 69.179688 89.832031 69.179688 C 89.714844 69.179688 89.601562 69.167969 89.488281 69.160156 C 91.886719 68.980469 93.738281 66.980469 93.738281 64.570312 Z M 93.738281 64.570312 "/>
<path style=" stroke:none;fill-rule:nonzero;fill:rgb(100%,72.156863%,72.156863%);fill-opacity:1;" d="M 96.269531 77.707031 C 96.269531 76.941406 95.804688 76.324219 95.234375 76.324219 C 94.664062 76.324219 94.199219 76.941406 94.199219 77.707031 C 94.199219 78.46875 94.664062 79.089844 95.234375 79.089844 C 95.804688 79.089844 96.269531 78.46875 96.269531 77.707031 Z M 96.269531 77.707031 "/>
<path style=" stroke:none;fill-rule:nonzero;fill:rgb(24.705882%,23.921569%,33.72549%);fill-opacity:1;" d="M 225.476562 184.84375 L 153.917969 184.84375 L 138.765625 113.007812 L 125.832031 113.007812 L 125.832031 109.785156 L 141.371094 109.785156 L 156.523438 181.621094 L 225.476562 181.621094 Z M 225.476562 184.84375 "/>
<path style=" stroke:none;fill-rule:nonzero;fill:rgb(24.705882%,23.921569%,33.72549%);fill-opacity:1;" d="M 171.292969 191.058594 C 171.292969 194.875 168.207031 197.96875 164.402344 197.96875 C 160.601562 197.96875 157.515625 194.875 157.515625 191.058594 C 157.515625 187.246094 160.601562 184.152344 164.402344 184.152344 C 168.207031 184.152344 171.292969 187.246094 171.292969 191.058594 Z M 171.292969 191.058594 "/>
<path style=" stroke:none;fill-rule:nonzero;fill:rgb(24.705882%,23.921569%,33.72549%);fill-opacity:1;" d="M 222.722656 191.058594 C 222.722656 194.875 219.636719 197.96875 215.832031 197.96875 C 212.027344 197.96875 208.945312 194.875 208.945312 191.058594 C 208.945312 187.246094 212.027344 184.152344 215.832031 184.152344 C 219.636719 184.152344 222.722656 187.246094 222.722656 191.058594 Z M 222.722656 191.058594 "/>
<path style=" stroke:none;fill-rule:nonzero;fill:rgb(24.705882%,23.921569%,33.72549%);fill-opacity:1;" d="M 224.171875 183.324219 L 154.550781 183.324219 L 142.265625 122.449219 L 235.699219 122.449219 C 236.664062 122.449219 237.582031 122.871094 238.207031 123.605469 C 238.835938 124.34375 239.109375 125.316406 238.960938 126.273438 L 227.429688 180.53125 C 227.1875 182.144531 225.796875 183.332031 224.171875 183.324219 Z M 155.304688 182.40625 L 224.171875 182.40625 C 225.347656 182.410156 226.347656 181.550781 226.523438 180.386719 L 238.050781 126.128906 C 238.160156 125.4375 237.960938 124.734375 237.507812 124.203125 C 237.058594 123.675781 236.394531 123.367188 235.699219 123.367188 L 143.378906 123.367188 Z M 155.304688 182.40625 "/>
<path style=" stroke:none;fill-rule:nonzero;fill:rgb(24.705882%,23.921569%,33.72549%);fill-opacity:1;" d="M 168.085938 183.128906 L 160.039062 122.984375 L 160.945312 122.832031 L 168.988281 182.980469 Z M 168.085938 183.128906 "/>
<path style=" stroke:none;fill-rule:nonzero;fill:rgb(24.705882%,23.921569%,33.72549%);fill-opacity:1;" d="M 212.816406 182.667969 L 211.910156 182.519531 L 219.71875 122.835938 L 220.625 122.980469 Z M 212.816406 182.667969 "/>
<path style=" stroke:none;fill-rule:nonzero;fill:rgb(24.705882%,23.921569%,33.72549%);fill-opacity:1;" d="M 190.585938 122.910156 L 191.503906 122.910156 L 191.503906 183.054688 L 190.585938 183.054688 Z M 190.585938 122.910156 "/>
<path style=" stroke:none;fill-rule:nonzero;fill:rgb(24.705882%,23.921569%,33.72549%);fill-opacity:1;" d="M 146.953125 139.945312 L 146.957031 139.023438 L 235.851562 139.242188 L 235.851562 140.160156 Z M 146.953125 139.945312 "/>
<path style=" stroke:none;fill-rule:nonzero;fill:rgb(24.705882%,23.921569%,33.72549%);fill-opacity:1;" d="M 151.480469 168.011719 L 229.578125 167.476562 L 229.585938 168.394531 L 151.488281 168.929688 Z M 151.480469 168.011719 "/>
<path style=" stroke:none;fill-rule:nonzero;fill:rgb(24.705882%,23.921569%,33.72549%);fill-opacity:1;" d="M 132.261719 110.9375 C 132.261719 109.410156 130 108.171875 127.210938 108.171875 C 124.421875 108.171875 122.160156 109.410156 122.160156 110.9375 C 122.160156 112.460938 124.421875 113.699219 127.210938 113.699219 C 130 113.699219 132.261719 112.460938 132.261719 110.9375 Z M 132.261719 110.9375 "/>
</g>
</svg>
